<svg width="230" height="109" viewBox="0 0 230 109" fill="none" xmlns="http://www.w3.org/2000/svg">
<path d="M81 72.6023V49.3296H96.409V53.3864H85.92V58.9318H95.386V62.9887H85.92V72.6023H81ZM99.628 72.6023V55.1478H104.468V72.6023H99.628ZM102.059 52.8978C101.34 52.8978 100.722 52.6591 100.207 52.1818C99.7 51.697 99.446 51.1175 99.446 50.4432C99.446 49.7765 99.7 49.2046 100.207 48.7273C100.722 48.2425 101.34 48 102.059 48C102.779 48 103.393 48.2425 103.9 48.7273C104.415 49.2046 104.673 49.7765 104.673 50.4432C104.673 51.1175 104.415 51.697 103.9 52.1818C103.393 52.6591 102.779 52.8978 102.059 52.8978ZM113.187 62.5114V72.6023H108.346V55.1478H112.96V58.2273H113.165C113.551 57.2121 114.199 56.4091 115.108 55.8182C116.017 55.2197 117.119 54.9205 118.415 54.9205C119.627 54.9205 120.683 55.1856 121.585 55.7159C122.486 56.2462 123.187 57.0038 123.687 57.9887C124.187 58.9659 124.437 60.1326 124.437 61.4887V72.6023H119.596V62.3523C119.604 61.2841 119.331 60.4508 118.778 59.8523C118.225 59.2462 117.464 58.9432 116.494 58.9432C115.843 58.9432 115.267 59.0834 114.767 59.3637C114.274 59.644 113.888 60.0531 113.608 60.5909C113.335 61.1212 113.195 61.7614 113.187 62.5114ZM133.23 72.9318C132.116 72.9318 131.124 72.7387 130.253 72.3523C129.381 71.9584 128.692 71.3788 128.184 70.6137C127.684 69.8409 127.434 68.8788 127.434 67.7273C127.434 66.7576 127.612 65.9432 127.968 65.2841C128.325 64.625 128.809 64.0947 129.423 63.6932C130.037 63.2917 130.734 62.9887 131.514 62.7841C132.302 62.5796 133.128 62.4356 133.991 62.3523C135.006 62.2462 135.825 62.1478 136.446 62.0568C137.067 61.9584 137.518 61.8144 137.798 61.625C138.078 61.4356 138.218 61.1553 138.218 60.7841V60.7159C138.218 59.9962 137.991 59.4394 137.537 59.0455C137.09 58.6515 136.453 58.4546 135.628 58.4546C134.756 58.4546 134.063 58.6478 133.548 59.0341C133.033 59.4129 132.692 59.8902 132.525 60.4659L128.048 60.1023C128.275 59.0417 128.722 58.125 129.389 57.3523C130.056 56.572 130.915 55.9735 131.968 55.5568C133.029 55.1326 134.256 54.9205 135.65 54.9205C136.62 54.9205 137.548 55.0341 138.434 55.2614C139.328 55.4887 140.12 55.8409 140.809 56.3182C141.506 56.7955 142.056 57.4091 142.457 58.1591C142.859 58.9015 143.059 59.7917 143.059 60.8296V72.6023H138.468V70.1818H138.332C138.052 70.7273 137.677 71.2084 137.207 71.625C136.737 72.0341 136.173 72.3561 135.514 72.5909C134.855 72.8182 134.093 72.9318 133.23 72.9318ZM134.616 69.5909C135.328 69.5909 135.957 69.4508 136.503 69.1705C137.048 68.8826 137.476 68.4962 137.787 68.0114C138.097 67.5265 138.253 66.9773 138.253 66.3637V64.5114C138.101 64.6099 137.893 64.7008 137.628 64.7841C137.37 64.8599 137.078 64.9318 136.753 65C136.427 65.0606 136.101 65.1175 135.775 65.1705C135.45 65.2159 135.154 65.2576 134.889 65.2955C134.321 65.3788 133.825 65.5114 133.4 65.6932C132.976 65.875 132.647 66.1212 132.412 66.4318C132.177 66.7349 132.059 67.1137 132.059 67.5682C132.059 68.2273 132.298 68.7311 132.775 69.0796C133.26 69.4205 133.874 69.5909 134.616 69.5909ZM151.656 62.5114V72.6023H146.815V55.1478H151.429V58.2273H151.633C152.02 57.2121 152.667 56.4091 153.576 55.8182C154.486 55.2197 155.588 54.9205 156.883 54.9205C158.095 54.9205 159.152 55.1856 160.054 55.7159C160.955 56.2462 161.656 57.0038 162.156 57.9887C162.656 58.9659 162.906 60.1326 162.906 61.4887V72.6023H158.065V62.3523C158.073 61.2841 157.8 60.4508 157.247 59.8523C156.694 59.2462 155.932 58.9432 154.963 58.9432C154.311 58.9432 153.736 59.0834 153.236 59.3637C152.743 59.644 152.357 60.0531 152.076 60.5909C151.804 61.1212 151.664 61.7614 151.656 62.5114ZM174.608 72.9432C172.82 72.9432 171.282 72.5644 169.994 71.8068C168.714 71.0417 167.729 69.9811 167.039 68.625C166.358 67.269 166.017 65.7084 166.017 63.9432C166.017 62.1553 166.361 60.5871 167.051 59.2387C167.748 57.8826 168.736 56.8258 170.017 56.0682C171.297 55.3031 172.82 54.9205 174.585 54.9205C176.108 54.9205 177.441 55.197 178.585 55.75C179.729 56.3031 180.634 57.0796 181.301 58.0796C181.968 59.0796 182.335 60.2538 182.403 61.6023H177.835C177.706 60.7311 177.365 60.0303 176.812 59.5C176.267 58.9621 175.551 58.6932 174.665 58.6932C173.915 58.6932 173.259 58.8978 172.699 59.3068C172.146 59.7084 171.714 60.2955 171.403 61.0682C171.093 61.8409 170.937 62.7765 170.937 63.875C170.937 64.9887 171.089 65.9356 171.392 66.7159C171.702 67.4962 172.138 68.0909 172.699 68.5C173.259 68.9091 173.915 69.1137 174.665 69.1137C175.218 69.1137 175.714 69 176.153 68.7728C176.6 68.5455 176.968 68.2159 177.255 67.7841C177.551 67.3447 177.744 66.8182 177.835 66.2046H182.403C182.327 67.5379 181.964 68.7121 181.312 69.7273C180.668 70.7349 179.778 71.5228 178.642 72.0909C177.505 72.6591 176.161 72.9432 174.608 72.9432ZM193.457 72.9432C191.662 72.9432 190.116 72.5796 188.821 71.8523C187.533 71.1175 186.54 70.0796 185.843 68.7387C185.147 67.3902 184.798 65.7955 184.798 63.9546C184.798 62.1591 185.147 60.5834 185.843 59.2273C186.54 57.8712 187.522 56.8144 188.787 56.0568C190.059 55.2993 191.552 54.9205 193.264 54.9205C194.415 54.9205 195.487 55.1061 196.48 55.4773C197.48 55.8409 198.351 56.3902 199.093 57.125C199.843 57.8599 200.427 58.7841 200.843 59.8978C201.26 61.0038 201.468 62.2993 201.468 63.7841V65.1137H186.73V62.1137H196.912C196.912 61.4167 196.76 60.7993 196.457 60.2614C196.154 59.7235 195.734 59.3031 195.196 59C194.665 58.6894 194.048 58.5341 193.343 58.5341C192.609 58.5341 191.957 58.7046 191.389 59.0455C190.828 59.3788 190.389 59.8296 190.071 60.3978C189.753 60.9584 189.59 61.5834 189.582 62.2728V65.125C189.582 65.9887 189.741 66.7349 190.059 67.3637C190.385 67.9925 190.843 68.4773 191.434 68.8182C192.025 69.1591 192.726 69.3296 193.537 69.3296C194.075 69.3296 194.567 69.2538 195.014 69.1023C195.461 68.9508 195.843 68.7235 196.162 68.4205C196.48 68.1175 196.722 67.7462 196.889 67.3068L201.366 67.6023C201.139 68.6781 200.673 69.6175 199.968 70.4205C199.272 71.2159 198.37 71.8371 197.264 72.2841C196.165 72.7235 194.897 72.9432 193.457 72.9432Z" fill="white"/>
<path d="M66.0941 50.3983C67.0938 50.2839 68.0021 51.0018 68.0629 52.0063C68.4751 58.8209 66.83 65.6182 63.3195 71.5061C59.4973 77.9169 53.6752 82.8948 46.7484 85.6745C39.8216 88.4542 32.1735 88.8819 24.98 86.8917C17.7864 84.9016 11.4457 80.6038 6.93258 74.6591C2.41948 68.7144 -0.0162187 61.4519 8.12811e-05 53.9882C0.0163813 46.5245 2.48368 39.2727 7.02268 33.3477C11.5616 27.4228 17.9211 23.1527 25.1232 21.1939C31.738 19.3949 38.7273 19.637 45.1805 21.8655C46.1316 22.1939 46.579 23.2617 46.2002 24.194C45.8213 25.1262 44.7599 25.5693 43.8067 25.2469C38.0953 23.3155 31.9237 23.1208 26.0795 24.7102C19.6479 26.4594 13.9688 30.2727 9.91538 35.5638C5.86198 40.8549 3.65858 47.3309 3.64408 53.9961C3.62958 60.6614 5.80468 67.1469 9.83498 72.4556C13.8653 77.7644 19.5277 81.6024 25.9516 83.3796C32.3756 85.1569 39.2055 84.775 45.3912 82.2926C51.577 79.8103 56.7762 75.3649 60.1896 69.64C63.2911 64.438 64.7621 58.4411 64.4366 52.4208C64.3823 51.416 65.0943 50.5127 66.0941 50.3983Z" fill="white"/>
<path fill-rule="evenodd" clip-rule="evenodd" d="M60.6641 27C60.6641 25.8954 59.7687 25 58.6641 25C57.5595 25 56.6641 25.8954 56.6641 27V32.0703H51C49.8955 32.0703 49 32.9657 49 34.0703C49 35.1749 49.8955 36.0703 51 36.0703H56.6641V41.7343C56.6641 42.8389 57.5595 43.7343 58.6641 43.7343C59.7687 43.7343 60.6641 42.8389 60.6641 41.7343V36.0703H65.7344C66.839 36.0703 67.7344 35.1749 67.7344 34.0703C67.7344 32.9657 66.839 32.0703 65.7344 32.0703H60.6641V27Z" fill="#01C246"/>
<path d="M34.0513 72.7656C33.5072 72.7656 33.062 72.5775 32.7157 72.2014C32.3694 71.8504 32.1963 71.4117 32.1963 70.8852V68.3278C30.6876 68.2275 29.3396 67.9893 28.1524 67.6132C26.9899 67.2121 25.9882 66.7733 25.1473 66.2969C24.5784 65.971 24.2198 65.5322 24.0714 64.9806C23.9477 64.429 23.9848 63.9025 24.1827 63.4011C24.3806 62.8996 24.7145 62.5486 25.1844 62.348C25.6543 62.1475 26.2108 62.2352 26.8539 62.6113C27.5464 63.0125 28.4492 63.4011 29.5622 63.7772C30.6999 64.1282 32.0603 64.3037 33.6432 64.3037C35.4982 64.3037 36.8338 63.9777 37.65 63.3259C38.4662 62.6489 38.8743 61.809 38.8743 60.8061C38.8743 59.9787 38.5899 59.3018 38.021 58.7752C37.4521 58.2487 36.4381 57.8225 34.9788 57.4966L31.0462 56.6316C26.5695 55.6537 24.3311 53.2719 24.3311 49.486C24.3311 47.3799 25.036 45.6123 26.4458 44.1832C27.8803 42.729 29.7972 41.8514 32.1963 41.5506V38.8804C32.1963 38.3539 32.3694 37.9151 32.7157 37.5641C33.062 37.188 33.5072 37 34.0513 37C34.5707 37 35.0035 37.188 35.3498 37.5641C35.7208 37.9151 35.9063 38.3539 35.9063 38.8804V41.513C36.8956 41.6133 37.9344 41.8514 39.0227 42.2275C40.1357 42.6036 41.1003 43.1176 41.9165 43.7695C42.3864 44.1456 42.6585 44.5843 42.7327 45.0858C42.8069 45.5621 42.7203 46.0134 42.473 46.4397C42.2504 46.8408 41.8918 47.1166 41.3971 47.2671C40.9272 47.3924 40.3707 47.2671 39.7276 46.891C39.0103 46.4647 38.2065 46.1263 37.3161 45.8755C36.4257 45.5997 35.3622 45.4618 34.1255 45.4618C32.5426 45.4618 31.2935 45.8254 30.3784 46.5525C29.488 47.2545 29.0428 48.1822 29.0428 49.3355C29.0428 50.188 29.3149 50.8775 29.859 51.404C30.4031 51.9054 31.3306 52.3066 32.6415 52.6075L36.6854 53.5101C39.0598 54.0366 40.8035 54.8765 41.9165 56.0298C43.0295 57.1581 43.586 58.6499 43.586 60.5052C43.586 62.6113 42.8687 64.3413 41.4342 65.6952C40.0244 67.024 38.1818 67.8639 35.9063 68.215V70.8852C35.9063 71.4117 35.7332 71.8504 35.3869 72.2014C35.0406 72.5775 34.5954 72.7656 34.0513 72.7656Z" fill="white"/>
</svg>
